<svg width="40" height="34" viewBox="0 0 40 34" fill="none" xmlns="http://www.w3.org/2000/svg">
<path d="M25.5671 13.576L25.3901 13.752C25.6091 13.855 25.8151 13.998 25.9971 14.18L27.0191 15.202C27.4261 15.609 27.6541 16.161 27.6541 16.736C27.6541 17.311 27.4251 17.863 27.0181 18.269L26.1811 19.105C26.1151 19.171 25.9401 19.341 25.6881 19.544L26.1501 24.147C26.1991 24.637 26.0791 25.13 25.8111 25.543L24.0531 28.252C23.6521 28.87 22.9661 29.24 22.2341 29.24C22.2011 29.24 22.1681 29.239 22.1341 29.238C21.3651 29.202 20.6721 28.762 20.3141 28.08L14.9461 17.855L10.5231 21.878L11.0661 25.544C11.1511 26.116 11.0031 26.699 10.6561 27.162L10.2391 27.719C9.98809 28.054 9.65009 28.304 9.26709 28.448V33.763H40.0001V13.576H25.5671ZM29.5551 26.314L31.3571 23.193L33.1591 26.314H32.0801V29.066H30.6341V26.314H29.5551ZM37.4701 30.15V31.596H29.5501V30.15H37.4701ZM33.8611 26.314L35.6631 23.193L37.4651 26.314H36.3861V29.066H34.9401V26.314H33.8611Z" fill="#651FFF"/>
<path d="M15.563 14.365L22.235 27.073L23.993 24.364L23.397 18.41C23.839 18.27 24.399 17.822 24.649 17.573L25.487 16.736L24.465 15.714L23.628 16.551C23.455 16.724 23.16 16.936 23.011 17.011L22.162 13.402C22.577 13.315 22.963 13.115 23.265 12.813L24.21 11.869L23.188 10.847L22.243 11.791C22.105 11.929 21.952 11.98 21.832 11.999L20.949 8.24802L25.196 4.00202C27.501 1.69802 27.403 0.0940176 26.156 0.0930176C25.434 0.0930176 24.326 0.630018 23.076 1.88102L18.83 6.12702L15.078 5.24402C15.096 5.12402 15.148 4.97102 15.286 4.83302L16.231 3.88902L15.209 2.86602L14.26 3.81002C13.958 4.11202 13.759 4.49802 13.671 4.91302L10.062 4.06402C10.138 3.91502 10.349 3.62102 10.522 3.44702L11.36 2.61002L10.338 1.58802L9.501 2.42502C9.252 2.67402 8.804 3.23502 8.663 3.67702L2.709 3.08102L0 4.83902L12.709 11.511L6.02 18.864L1.21 18.151L0.653 18.568L4.659 21.868L5.205 22.414L8.505 26.42L8.923 25.863L8.21 21.053L15.563 14.365Z" fill="#651FFF"/>
</svg>
